<mxfile host="app.diagrams.net" modified="2023-05-23T08:14:34.313Z" agent="Mozilla/5.0 (Macintosh; Intel Mac OS X 10_15_7) AppleWebKit/537.36 (KHTML, like Gecko) Chrome/110.0.0.0 Safari/537.36" version="21.3.2" etag="CMesAGqagLaA87LHL6d8" type="github">
  <diagram name="Page-1" id="_siwDrFcKnk8f0ph_S-L">
    <mxGraphModel>
      <root>
        <mxCell id="0" />
        <mxCell id="1" parent="0" />
      </root>
    </mxGraphModel>
  </diagram>
</mxfile>
